PathFileType	4	(X/Y/Z)	C:/Users/beibeiliu/ov580/test_trc\sequence.21_training_dense_left.trc
DataRate	CameraRate	NumFrames	NumMarkers	Units	OrigDataRate	OrigDataStartFrame	OrigNumFrames
120	120	17	19	mm	120	50	397
Frame#	Time	ThumbCMC			ThumbMCP			ThumbIP			ThumbTip			IndexMCP			IndexPIP			IndexTip			MiddleMCP			MiddlePIP			MiddleTip			RingMCP			RingPIP			RingTip			PinkyMCP			PinkyPIP			PinkyTip			BackHand1			BackHand2			BackHand3	
		X0	Y0	Z0	X1	Y1	Z1	X2	Y2	Z2	X3	Y3	Z3	X4	Y4	Z4	X5	Y5	Z5	X6	Y6	Z6	X7	Y7	Z7	X8	Y8	Z8	X9	Y9	Z9	X10	Y10	Z10	X11	Y11	Z11	X12	Y12	Z12	X13	Y13	Z13	X14	Y14	Z14	X15	Y15	Z15	X16	Y16	Z16	X17	Y17	Z17	X18	Y18	Z18	
49	0.408333	-245.162	42.3393	9.45719	-223.864	51.5512	-10.1536	-205.47	41.4656	-26.2545	-190.398	18.0715	-26.1282	-239.915	27.4564	-55.4675	-229.893	33.9368	-76.244	-217.964	40.8121	-92.7146	-229.368	9.29197	-56.5353	-217.982	12.9783	-79.3886	-199.392	18.4834	-101.926	-216.308	-5.04053	-47.2592	-206.001	-0.405135	-69.7951	-193.612	4.0375	-86.5931	-207.949	-12.851	-28.8036	-198.697	-11.5788	-49.0641	-187.117	-13.1959	-68.0039	-235.171	-11.2078	-5.76742	-243.383	-9.21221	18.6582	-254.72	8.19301	2.57485	
50	0.416667	-245.972	40.55	15.0343	-224.629	52.7425	-11.1258	-206.57	42.9985	-24.7789	-188.086	21.9476	-27.6299	-241.625	29.1515	-50.2024	-228.668	30.8822	-74.9724	-219.383	41.0623	-91.3572	-227.137	9.59978	-54.8113	-216.402	13.3266	-79.0705	-200.532	18.773	-98.017	-215.797	-2.92673	-44.6458	-202.134	-0.517572	-68.7386	-190.459	8.13122	-87.167	-202.508	-12.9387	-32.1067	-193.594	-13.3368	-46.7439	-187.725	-9.14067	-64.7619	-233.517	-10.8785	-2.65944	-241.147	-13.6129	18.4692	-253.956	6.38346	2.75238	
51	0.425	-245.55	40.2913	15.6268	-224.297	56.3384	-9.83161	-206.259	43.3913	-23.4491	-187.538	20.528	-25.4063	-239.322	26.8361	-51.9143	-229.319	32.8015	-73.6303	-215.606	41.0504	-92.9926	-226.208	10.1864	-53.922	-218.715	15.1442	-76.3632	-196.548	21.8595	-100.553	-214.592	-0.378723	-45.6243	-203.009	3.69301	-68.0639	-189.255	7.97562	-82.7988	-199.267	-13.7129	-28.2928	-190.063	-9.16339	-49.0906	-183.454	-2.91482	-64.782	-231.422	-9.31478	-3.85291	-236.997	-14.1859	20.5762	-254.248	6.98817	2.31321	
52	0.433333	-245.29	34.7936	12.1844	-227.662	52.934	-8.38086	-204.825	41.8547	-29.2125	-188.722	22.1426	-24.2526	-237.878	23.5014	-50.9783	-228.795	30.4076	-72.7744	-215.027	40.8606	-91.8265	-222.957	7.93688	-57.7766	-216.968	14.8687	-77.3916	-200.668	26.2729	-98.8785	-208.792	-3.14702	-42.939	-200.975	4.32915	-66.7712	-187.301	11.1598	-84.2851	-195.491	-11.185	-29.3578	-186.285	-6.23308	-48.9544	-176.282	-3.81487	-67.0913	-227.772	-9.12176	-4.83106	-235.371	-16.7558	22.5422	-252.215	4.86194	0.18186	
53	0.441667	-247.665	35.6553	13.8895	-228.188	51.6265	-13.5314	-206.065	43.5935	-28.6528	-190.301	25.6214	-23.5497	-239.069	22.5866	-50.9013	-230.086	31.4113	-73.9656	-220.79	41.7031	-90.1083	-225.314	10.7703	-57.9881	-214.2	15.8635	-80.5265	-198.821	25.6804	-98.9879	-211.093	0.770142	-46.4384	-199.101	4.43985	-65.3558	-190.839	13.0891	-82.5963	-196.518	-8.14747	-30.0378	-186.935	-3.45354	-48.6099	-177.975	-1.18469	-64.8236	-225.76	-13.7081	-1.06119	-233.872	-15.8834	20.2589	-252.051	3.50986	-0.177896	
54	0.45	-248.518	33.8182	9.28286	-230.959	50.8189	-10.871	-208.547	44.6359	-27.2068	-191.021	27.8013	-23.0185	-239.003	21.6413	-51.8725	-230.182	31.4872	-76.5489	-221.962	41.4384	-90.5613	-221.449	7.03122	-55.288	-213.532	17.1421	-80.1304	-200.249	27.9742	-100.007	-206.095	-1.12697	-43.7217	-195.073	4.78924	-67.1958	-189.267	15.4063	-82.9204	-192.423	-6.65406	-31.6318	-183.811	-2.48689	-47.352	-175.269	3.50314	-63.9461	-223.574	-13.1367	-3.17673	-229.084	-15.5146	22.4738	-249.68	2.69518	2.05577	
55	0.458333	-248.411	30.4831	10.8969	-232.138	50.1062	-13.1058	-211.422	43.1452	-24.5772	-187.951	29.1659	-24.5343	-239.406	18.945	-50.0449	-231.102	29.3999	-73.6165	-222.5	41.0947	-91.5267	-223.18	8.26615	-55.2202	-215.097	16.6172	-79.8608	-200.427	24.8989	-96.619	-208.969	0.759407	-42.502	-195.218	6.89895	-68.5865	-188.631	16.3762	-83.028	-190.52	-6.36922	-29.0008	-184.326	-1.17567	-44.8899	-169.48	5.03648	-64.072	-224.117	-10.2759	-2.3667	-231.164	-14.5326	19.6253	-250.021	-2.27775	4.44137	
56	0.466667	-251.965	29.1618	8.83011	-236.227	49.9176	-13.5479	-213.551	46.1124	-27.7526	-190.796	33.3572	-25.1996	-242.071	18.4713	-52.7332	-235.651	28.9508	-73.3327	-228.411	40.5145	-90.3818	-222.44	7.60817	-56.8166	-212.187	16.4076	-79.3912	-198.238	27.6806	-98.4858	-207.27	1.4324	-41.8318	-194.659	8.66895	-67.2139	-189.448	20.0609	-84.8946	-192.904	-3.19139	-25.9848	-183.689	0.651859	-42.9181	-169.95	6.3288	-61.5167	-219.251	-13.0993	-5.62751	-228.057	-18.2985	22.7857	-249.208	-1.44233	0.870471	
57	0.475	-252.589	25.4691	13.5233	-240.363	46.2952	-10.3007	-216.194	41.2878	-24.459	-196.205	32.0078	-22.2904	-241.997	17.8215	-54.0845	-233.799	26.0772	-73.6904	-228.062	39.8091	-91.898	-221.092	5.76661	-55.503	-213.825	13.4303	-75.0451	-199.97	29.0633	-98.6467	-206.022	1.83092	-46.1331	-198.093	8.63291	-66.3945	-191.122	18.5818	-81.0677	-189.797	-2.35239	-26.1221	-178.155	2.06229	-44.355	-169.996	5.37624	-59.8335	-217.795	-11.7036	-1.61049	-229.896	-16.9651	20.9732	-247.556	-6.07547	3.85998	
58	0.483333	-256.528	24.6318	13.3937	-241.658	44.225	-10.2485	-221.11	44.2962	-23.7746	-195.94	32.2814	-22.5588	-242.158	13.7673	-50.781	-235.652	23.0208	-71.8645	-228.056	38.1798	-93.9166	-220.509	4.80162	-52.3067	-212.488	15.7905	-78.8916	-202.629	28.7183	-99.3316	-204.967	0.773134	-41.8339	-195.843	9.38422	-65.3544	-191.385	19.149	-80.4656	-187.775	-1.21352	-26.1466	-181.037	4.35505	-42.883	-170.277	10.0331	-61.5188	-219.948	-11.3273	-4.53903	-225.296	-18.1278	23.1317	-245.198	-9.05085	2.61516	
59	0.491667	-257.228	22.5094	14.6026	-242.804	43.1072	-9.7319	-221.385	43.1597	-22.8226	-198.02	31.5952	-19.3136	-243.866	13.4578	-54.6156	-239.914	24.6801	-75.4229	-231.369	34.4498	-89.7839	-219.077	3.7672	-55.0886	-214.906	12.5797	-75.6109	-201.233	26.3367	-95.8326	-203.229	1.07142	-44.4892	-197.306	10.8885	-66.3719	-188.273	21.5318	-84.5035	-188.389	0.341175	-23.8354	-176.949	7.1065	-45.1781	-171.872	13.2023	-58.6198	-214.803	-14.5027	1.14848	-222.344	-20.7827	22.8229	-247.773	-10.1205	2.8452	
60	0.5	-258.303	19.4036	14.389	-244.899	40.4538	-9.26152	-219.573	41.629	-25.2356	-199.844	30.8155	-19.4962	-243.107	9.62476	-48.5865	-237.8	19.2952	-71.7879	-229.986	34.6767	-93.2288	-223.387	3.23046	-54.3285	-214.354	11.2945	-74.014	-205.92	27.1247	-99.4146	-203.134	0.420242	-42.9279	-194.008	9.69282	-64.1062	-190.782	20.8018	-80.6533	-189.399	0.633459	-25.4591	-177.805	6.53496	-41.5756	-169.924	11.0785	-58.0539	-216.717	-14.0554	-3.47232	-224.397	-20.7573	24.5239	-241.862	-12.1741	4.3156	
61	0.508333	-258.539	18.0084	13.0173	-245.712	41.0365	-9.86933	-222.931	43.161	-23.4069	-196.203	31.9199	-20.4659	-240.967	7.36896	-48.739	-236.972	18.1907	-72.6614	-235.159	33.5216	-91.7634	-221.455	2.94147	-55.1311	-212.346	12.285	-76.971	-205.057	26.1405	-98.1703	-200.383	0.317571	-40.5042	-195.599	9.69889	-63.5745	-186.704	21.4624	-81.2153	-184.82	-0.0855544	-25.6882	-177.872	7.3816	-42.9306	-172.676	14.9883	-58.5864	-214.2	-14.7106	-2.98459	-222.371	-20.6754	21.7693	-247.491	-14.8157	5.16622	
62	0.516667	-258.203	16.2066	14.9302	-244.539	38.2514	-11.1189	-224.787	40.4381	-21.2081	-197.932	29.3943	-19.4623	-242.247	7.34104	-51.5099	-239.278	16.7797	-71.1442	-231.94	33.2857	-91.5772	-221.784	1.75667	-52.5247	-215.328	12.4737	-77.6043	-203.385	24.081	-96.1571	-200.942	0.482646	-42.1745	-197.597	8.74517	-62.3441	-188.529	22.3867	-81.6811	-187.077	0.242086	-24.6486	-178.462	7.98928	-41.4744	-170.834	14.8642	-59.2805	-217.739	-17.4762	2.00062	-224.444	-21.2793	23.3215	-244.84	-15.196	5.33989	
63	0.525	-257.034	14.2518	14.7758	-246.47	37.1996	-9.60188	-224.907	38.3311	-21.9398	-199.456	29.1844	-19.2414	-243.27	6.73358	-49.7609	-238.994	18.1174	-72.5226	-235.087	33.0587	-91.2077	-220.298	1.40449	-53.3395	-215.907	10.701	-74.1505	-208.075	26.2134	-96.0918	-203.667	-0.182575	-39.0183	-197.821	10.1963	-62.9084	-189.527	21.5317	-79.1452	-190.812	0.0534367	-23.3808	-179.612	8.47283	-39.8651	-176.393	16.6752	-59.7807	-218.248	-16.7095	0.927439	-219.499	-25.1631	26.0393	-245.386	-17.4695	3.51942	
64	0.533333	-255.591	10.9772	13.6408	-248.13	37.434	-7.58746	-222.359	38.413	-25.471	-200.724	29.6194	-18.9332	-242.496	5.83832	-51.6481	-239.6	17.8112	-73.5156	-238.544	31.0603	-88.5448	-223.329	0.0134247	-53.225	-214.431	11.4104	-76.2194	-205.876	26.0579	-96.1867	-201.025	-0.931361	-41.5408	-196.745	8.99612	-61.4743	-191.967	22.7417	-79.9915	-191.119	1.52459	-25.404	-181.091	9.1098	-41.6953	-172.557	16.2932	-56.3475	-215.736	-18.0381	0.775639	-220.742	-23.4858	24.825	-244.61	-16.4674	5.14329	
65	0.541667	-256.515	11.1189	13.7577	-245.575	34.4715	-11.4858	-225.955	38.7489	-20.8353	-199.997	29.6758	-20.2448	-244.839	3.50486	-47.3287	-238.672	16.5322	-71.7165	-235.474	31.1014	-91.4118	-223.184	-0.296715	-53.1571	-212.104	10.2947	-74.6045	-203.393	22.6552	-92.4781	-205.284	0.391862	-42.6427	-196.904	10.5917	-62.9391	-189.357	22.3771	-78.7642	-189.743	2.13226	-27.6049	-178.696	10.0016	-39.8268	-177.214	17.367	-59.1897	-216.182	-17.7369	2.99372	-218.439	-26.3006	22.3634	-242.305	-19.7554	6.19395	
